<svg width="84" height="23" viewBox="0 0 84 23" fill="none" xmlns="http://www.w3.org/2000/svg">
<path d="M15.2735 0.479279L12.7795 3.90193C12.5268 4.24858 12.8002 4.73152 13.2275 4.69427C13.5207 4.66869 13.7518 4.65526 13.8589 4.65526C17.5253 4.65526 20.4964 7.69029 20.3919 11.3799C20.2912 14.9401 17.8349 14.9121 14.2733 14.9121H7.82045C7.21117 14.9121 6.83548 14.247 7.14987 13.7252L8.75752 10.3566C8.86477 10.0511 8.4557 9.83614 8.26503 10.0979L0.114573 21.2834C-0.202623 21.8094 0.176323 22.4802 0.790782 22.4802H13.3989C19.7911 22.4802 25.085 17.3084 24.999 10.9169C24.9292 5.69482 21.3329 1.30867 16.4883 0.0364181C16.0327 -0.0831805 15.5508 0.0988169 15.2735 0.479279Z" fill="url(#paint0_linear_40_237)"/>
<path d="M30.3337 16.2119C30.3337 15.9123 30.3723 15.5401 30.4493 15.0951C30.5349 14.6415 30.7188 14.1024 31.0012 13.4777L32.5801 14.0297C32.4347 14.4319 32.3234 14.7785 32.2464 15.0694C32.1694 15.3518 32.1309 15.6299 32.1309 15.9038C32.1309 16.2889 32.2164 16.6184 32.3876 16.8922C32.5673 17.166 32.8283 17.3757 33.1706 17.5212C33.5215 17.6667 33.9494 17.7394 34.4543 17.7394C34.9677 17.7394 35.3956 17.6838 35.7379 17.5725C36.0802 17.4613 36.3498 17.303 36.5466 17.0976C36.7434 16.9008 36.8846 16.6697 36.9702 16.4044C37.0558 16.1391 37.0986 15.8524 37.0986 15.5444C37.0986 15.3048 37.0686 15.0352 37.0087 14.7357C36.9574 14.4362 36.8804 14.111 36.7777 13.7601C36.675 13.4007 36.5594 13.0241 36.4311 12.6305L38.2282 12.1684C38.3138 12.4936 38.3822 12.7717 38.4336 13.0027C38.4935 13.2338 38.5448 13.4264 38.5876 13.5804C38.6304 13.7259 38.6646 13.8457 38.6903 13.9398C38.7759 14.1965 38.8914 14.3891 39.0369 14.5175C39.1824 14.6458 39.3706 14.7314 39.6017 14.7742C39.8413 14.817 40.128 14.8384 40.4617 14.8384C40.7869 14.8384 41.018 14.9239 41.1549 15.0951C41.2918 15.2577 41.3603 15.4631 41.3603 15.7112C41.3603 15.9765 41.2704 16.199 41.0907 16.3787C40.911 16.5499 40.6586 16.6355 40.3334 16.6355C40.0424 16.6355 39.7514 16.597 39.4605 16.5199C39.1781 16.4344 38.9342 16.2974 38.7288 16.1092C38.5234 15.9209 38.3908 15.6685 38.3309 15.3518L38.8058 15.8653C38.7887 16.4472 38.6732 16.9649 38.4592 17.4185C38.2453 17.8721 37.9458 18.2571 37.5607 18.5738C37.1841 18.8904 36.7263 19.13 36.1872 19.2926C35.6566 19.4552 35.0619 19.5365 34.4029 19.5365C33.8295 19.5365 33.2947 19.4723 32.7984 19.344C32.3106 19.2242 31.8784 19.0273 31.5019 18.7535C31.1339 18.4882 30.8472 18.1459 30.6418 17.7266C30.4364 17.3072 30.3337 16.8023 30.3337 16.2119ZM34.5184 11.334C34.2532 11.334 34.0264 11.2442 33.8381 11.0644C33.6584 10.8847 33.5685 10.6622 33.5685 10.3969C33.5685 10.1317 33.6584 9.90488 33.8381 9.71661C34.0264 9.52834 34.2532 9.43421 34.5184 9.43421C34.7752 9.43421 34.9934 9.52834 35.1731 9.71661C35.3614 9.90488 35.4555 10.1317 35.4555 10.3969C35.4555 10.6622 35.3614 10.8847 35.1731 11.0644C34.9934 11.2442 34.7752 11.334 34.5184 11.334ZM39.9443 16.6355L40.0726 14.8384C40.2694 14.8384 40.4363 14.7913 40.5732 14.6972C40.7187 14.5945 40.8685 14.4276 41.0225 14.1965C41.1766 13.9569 41.3563 13.636 41.5617 13.2338C41.8184 12.7203 42.0837 12.3181 42.3575 12.0272C42.6399 11.7362 42.9266 11.5308 43.2176 11.411C43.5171 11.2827 43.8166 11.2185 44.1161 11.2185C44.4926 11.2185 44.8435 11.2998 45.1687 11.4624C45.4939 11.625 45.7763 11.8475 46.0159 12.1299C46.2555 12.4037 46.4395 12.7203 46.5679 13.0798C46.7048 13.4306 46.7733 13.7943 46.7733 14.1709C46.7733 14.6244 46.6749 15.0352 46.478 15.4032C46.2898 15.7626 46.0245 16.0493 45.6822 16.2632C45.3484 16.4686 44.9633 16.5713 44.5269 16.5713C44.1589 16.5713 43.731 16.5071 43.2432 16.3787C42.7554 16.2504 42.242 15.9808 41.7029 15.57L42.3575 14.0168C42.7426 14.2821 43.102 14.4747 43.4358 14.5945C43.7781 14.7143 44.0605 14.7742 44.283 14.7742C44.4541 14.7742 44.5953 14.7571 44.7066 14.7228C44.8178 14.6886 44.8991 14.633 44.9505 14.556C45.0018 14.4789 45.0275 14.3763 45.0275 14.2479C45.0275 14.0682 44.9847 13.8842 44.8991 13.6959C44.8136 13.5076 44.698 13.3493 44.5526 13.221C44.4156 13.084 44.253 13.0156 44.0648 13.0156C43.8851 13.0156 43.731 13.084 43.6027 13.221C43.4828 13.3493 43.363 13.5376 43.2432 13.7858C43.132 14.0254 42.9951 14.3078 42.8325 14.633C42.6356 15.0266 42.4431 15.3561 42.2548 15.6214C42.0666 15.8781 41.8655 16.0835 41.6515 16.2375C41.4461 16.383 41.2022 16.4857 40.9198 16.5456C40.646 16.6055 40.3208 16.6355 39.9443 16.6355ZM50.5775 21.616C50.4234 21.017 50.2908 20.4565 50.1795 19.9344C50.0769 19.421 49.9998 18.9546 49.9485 18.5353C49.8971 18.1245 49.8715 17.7736 49.8715 17.4827C49.8715 16.8836 49.9699 16.383 50.1667 15.9808C50.3721 15.5786 50.6417 15.2577 50.9754 15.0181C51.3177 14.7699 51.69 14.5945 52.0922 14.4918C52.4944 14.3805 52.8966 14.3249 53.2988 14.3249C53.7096 14.3249 54.0861 14.3591 54.4284 14.4276C54.4455 14.1623 54.4241 13.9227 54.3642 13.7088C54.3129 13.4948 54.2316 13.3108 54.1203 13.1568C54.0177 13.0027 53.8893 12.8829 53.7352 12.7974C53.5898 12.7118 53.4315 12.669 53.2603 12.669C53.0977 12.669 52.9351 12.7118 52.7725 12.7974C52.6099 12.8744 52.4559 12.9899 52.3104 13.1439C52.1735 13.298 52.0408 13.4948 51.9125 13.7344L50.5133 12.9642C50.7443 12.4422 51.0182 12.0315 51.3348 11.7319C51.6515 11.4239 51.9809 11.2056 52.3232 11.0773C52.6741 10.9404 53.0164 10.8719 53.3502 10.8719C53.8636 10.8719 54.3043 10.9831 54.6723 11.2056C55.0488 11.4196 55.3526 11.702 55.5837 12.0528C55.8148 12.3952 55.9859 12.7631 56.0972 13.1568C56.2084 13.5504 56.264 13.927 56.264 14.2864C56.264 14.5602 56.2341 14.8341 56.1742 15.1079C56.1228 15.3732 56.0587 15.6128 55.9816 15.8268C55.9132 16.0407 55.8447 16.2076 55.7762 16.3274C55.3056 16.199 54.8606 16.1049 54.4413 16.045C54.0219 15.9851 53.6411 15.968 53.2988 15.9936C52.9651 16.0108 52.6741 16.0792 52.4259 16.199C52.1863 16.3103 51.998 16.4772 51.8611 16.6997C51.7328 16.9222 51.6686 17.2046 51.6686 17.5469C51.6686 17.8635 51.6942 18.2229 51.7456 18.6251C51.7969 19.0359 51.8697 19.4595 51.9638 19.8959C52.0579 20.3324 52.1649 20.7645 52.2847 21.1924L50.5775 21.616ZM57.058 19.5237L56.6857 17.7266C57.2933 17.6496 57.8239 17.5554 58.2775 17.4442C58.731 17.3415 59.1118 17.196 59.4199 17.0077C59.728 16.8195 59.959 16.5627 60.1131 16.2375C60.2671 15.9038 60.3441 15.4759 60.3441 14.9539C60.3441 14.449 60.2671 14.0468 60.1131 13.7473C59.959 13.4477 59.7537 13.298 59.4969 13.298C59.3172 13.298 59.1675 13.3622 59.0476 13.4905C58.9278 13.6103 58.838 13.7558 58.7781 13.927C58.7267 14.0896 58.7011 14.2351 58.7011 14.3634C58.7011 14.4404 58.7225 14.5217 58.7652 14.6073C58.808 14.6929 58.9022 14.7656 59.0476 14.8255C59.1931 14.8854 59.4199 14.9197 59.728 14.9282C60.0446 14.9368 60.4725 14.9068 61.0116 14.8384H63.1682C63.4933 14.8384 63.7244 14.9239 63.8613 15.0951C64.0068 15.2577 64.0795 15.4631 64.0795 15.7112C64.0795 15.9765 63.9897 16.199 63.81 16.3787C63.6303 16.5499 63.3735 16.6355 63.0398 16.6355H59.5098C58.9706 16.6355 58.5085 16.5713 58.1234 16.4429C57.7383 16.3146 57.4431 16.1092 57.2377 15.8268C57.0323 15.5358 56.9296 15.1507 56.9296 14.6715C56.9296 14.2864 56.9938 13.9013 57.1222 13.5162C57.2591 13.1311 57.4474 12.7802 57.687 12.4636C57.9266 12.1384 58.2047 11.8817 58.5213 11.6934C58.8465 11.4966 59.1974 11.3982 59.5739 11.3982C60.0874 11.3982 60.5367 11.5565 60.9218 11.8731C61.3069 12.1898 61.6064 12.6091 61.8203 13.1311C62.0428 13.6531 62.1541 14.2222 62.1541 14.8384C62.1541 15.8054 61.9487 16.6269 61.5379 17.303C61.1272 17.979 60.541 18.501 59.7793 18.869C59.0177 19.2456 58.1106 19.4638 57.058 19.5237ZM62.6728 16.6355L62.8012 14.8384C63.2034 14.8384 63.5115 14.8341 63.7254 14.8255C63.9479 14.817 64.1148 14.8084 64.2261 14.7999C64.3373 14.7827 64.4314 14.7699 64.5085 14.7613C64.4229 14.6758 64.3116 14.5517 64.1747 14.3891C64.0378 14.2265 63.9137 14.0168 63.8025 13.7601C63.6998 13.5034 63.6484 13.1953 63.6484 12.8359C63.6484 12.3139 63.7811 11.856 64.0463 11.4624C64.3202 11.0687 64.6882 10.7606 65.1503 10.5381C65.6124 10.3156 66.1301 10.2044 66.7035 10.2044C66.9773 10.2044 67.2298 10.2215 67.4609 10.2557C67.7005 10.29 67.9401 10.3413 68.1797 10.4098L67.8973 12.117C67.7261 12.0742 67.5464 12.04 67.3582 12.0143C67.1699 11.9887 67.003 11.9758 66.8575 11.9758C66.5751 11.9758 66.327 12.0229 66.113 12.117C65.9076 12.2026 65.745 12.3267 65.6252 12.4893C65.514 12.6433 65.4584 12.8316 65.4584 13.0541C65.4584 13.1996 65.484 13.3365 65.5354 13.4649C65.5953 13.5932 65.668 13.7088 65.7536 13.8114C65.8392 13.9141 65.9333 14.004 66.036 14.081C66.1387 14.158 66.2371 14.2222 66.3312 14.2736C66.4339 14.3163 66.5195 14.3463 66.588 14.3634C66.8019 14.3035 66.9859 14.2522 67.1399 14.2094C67.3025 14.158 67.4566 14.111 67.6021 14.0682C67.7561 14.0168 67.923 13.9526 68.1027 13.8756C68.2824 13.7986 68.5049 13.7045 68.7702 13.5932L69.3478 15.2876C68.629 15.6385 67.9272 15.9123 67.2426 16.1092C66.558 16.306 65.8477 16.4429 65.1118 16.5199C64.3758 16.597 63.5628 16.6355 62.6728 16.6355ZM72.2314 14.8384C72.6165 14.8384 72.9117 14.8041 73.1171 14.7357C73.3225 14.6672 73.4637 14.5774 73.5407 14.4661C73.6177 14.3549 73.6563 14.2351 73.6563 14.1067C73.6563 13.9013 73.5964 13.6617 73.4765 13.3878C73.3653 13.114 73.2241 12.8273 73.0529 12.5278C72.8818 12.2283 72.7021 11.9416 72.5138 11.6678C72.3341 11.3939 72.1715 11.1543 72.026 10.9489L73.5536 9.93483C73.9215 10.4312 74.2382 10.9232 74.5035 11.411C74.7688 11.8903 74.9827 12.3353 75.1453 12.746C75.3164 13.1568 75.4362 13.5076 75.5047 13.7986C75.5732 14.0725 75.6759 14.2864 75.8128 14.4404C75.9583 14.5859 76.1251 14.6886 76.3134 14.7485C76.5017 14.8084 76.6899 14.8384 76.8782 14.8384C77.2034 14.8384 77.4345 14.9239 77.5714 15.0951C77.7169 15.2577 77.7896 15.4631 77.7896 15.7112C77.7896 15.9765 77.6997 16.199 77.52 16.3787C77.3489 16.5499 77.0922 16.6355 76.7498 16.6355C76.3733 16.6355 76.0438 16.5841 75.7614 16.4814C75.479 16.3787 75.2394 16.2161 75.0426 15.9936C74.8458 15.7711 74.6789 15.4887 74.542 15.1464L75.325 15.3133C75.2565 15.5529 75.0982 15.7754 74.85 15.9808C74.6104 16.1776 74.2895 16.3402 73.8873 16.4686C73.4937 16.5884 73.0273 16.6483 72.4881 16.6483C72.2314 16.6483 71.9447 16.6269 71.6281 16.5841C71.32 16.5413 71.0119 16.4772 70.7039 16.3916C70.4043 16.306 70.1305 16.1948 69.8823 16.0578L70.5113 14.4276C70.828 14.5645 71.1317 14.6672 71.4227 14.7357C71.7222 14.8041 71.9918 14.8384 72.2314 14.8384ZM76.3813 16.6355L76.5097 14.8384C76.7065 14.8384 76.8734 14.7913 77.0103 14.6972C77.1558 14.5945 77.3055 14.4276 77.4596 14.1965C77.6136 13.9569 77.7933 13.636 77.9987 13.2338C78.2554 12.7203 78.5207 12.3181 78.7946 12.0272C79.077 11.7362 79.3636 11.5308 79.6546 11.411C79.9541 11.2827 80.2536 11.2185 80.5532 11.2185C80.9297 11.2185 81.2806 11.2998 81.6057 11.4624C81.9309 11.625 82.2133 11.8475 82.453 12.1299C82.6926 12.4037 82.8766 12.7203 83.0049 13.0798C83.1418 13.4306 83.2103 13.7943 83.2103 14.1709C83.2103 14.6244 83.1119 15.0352 82.9151 15.4032C82.7268 15.7626 82.4615 16.0493 82.1192 16.2632C81.7855 16.4686 81.4004 16.5713 80.9639 16.5713C80.5959 16.5713 80.1681 16.5071 79.6803 16.3787C79.1925 16.2504 78.679 15.9808 78.1399 15.57L78.7946 14.0168C79.1797 14.2821 79.5391 14.4747 79.8728 14.5945C80.2151 14.7143 80.4975 14.7742 80.72 14.7742C80.8912 14.7742 81.0324 14.7571 81.1436 14.7228C81.2549 14.6886 81.3362 14.633 81.3875 14.556C81.4389 14.4789 81.4645 14.3763 81.4645 14.2479C81.4645 14.0682 81.4218 13.8842 81.3362 13.6959C81.2506 13.5076 81.1351 13.3493 80.9896 13.221C80.8527 13.084 80.6901 13.0156 80.5018 13.0156C80.3221 13.0156 80.1681 13.084 80.0397 13.221C79.9199 13.3493 79.8001 13.5376 79.6803 13.7858C79.569 14.0254 79.4321 14.3078 79.2695 14.633C79.0727 15.0266 78.8801 15.3561 78.6919 15.6214C78.5036 15.8781 78.3025 16.0835 78.0886 16.2375C77.8832 16.383 77.6393 16.4857 77.3569 16.5456C77.083 16.6055 76.7578 16.6355 76.3813 16.6355Z" fill="#A682F4"/>
<defs>
<linearGradient id="paint0_linear_40_237" x1="-0.000128513" y1="11.24" x2="24.9999" y2="11.24" gradientUnits="userSpaceOnUse">
<stop offset="0.0444" stop-color="#079CEC"/>
<stop offset="0.3671" stop-color="#6B81F9"/>
<stop offset="1" stop-color="#A881F3"/>
</linearGradient>
</defs>
</svg>
