<svg width="94" height="23" viewBox="0 0 94 23" fill="none" xmlns="http://www.w3.org/2000/svg">
<path d="M84.2735 0.479279L81.7795 3.90193C81.5268 4.24858 81.8002 4.73152 82.2275 4.69427C82.5207 4.66869 82.7518 4.65526 82.8589 4.65526C86.5253 4.65526 89.4964 7.69029 89.3919 11.3799C89.2912 14.9401 86.8349 14.9121 83.2733 14.9121H76.8205C76.2112 14.9121 75.8355 14.247 76.1499 13.7252L77.7575 10.3566C77.8648 10.0511 77.4557 9.83614 77.265 10.0979L69.1146 21.2834C68.7974 21.8094 69.1763 22.4802 69.7908 22.4802H82.3989C88.7911 22.4802 94.085 17.3084 93.999 10.9169C93.9292 5.69482 90.3329 1.30867 85.4883 0.0364181C85.0327 -0.0831805 84.5508 0.0988169 84.2735 0.479279Z" fill="url(#paint0_linear_30_1484)"/>
<path d="M1.10394 16.5713V7.61143H4.95488C5.78497 7.61143 6.4268 7.85532 6.88035 8.34311C7.33391 8.83089 7.56069 9.48555 7.56069 10.3071C7.56069 11.1286 7.33391 11.7833 6.88035 12.2711C6.4268 12.7589 5.78497 13.0027 4.95488 13.0027H2.55446V16.5713H1.10394ZM2.55446 11.7319H4.86502C5.233 11.7319 5.51969 11.6378 5.72507 11.4495C5.93045 11.2527 6.03314 10.9746 6.03314 10.6152V9.99901C6.03314 9.63959 5.93045 9.36575 5.72507 9.17748C5.51969 8.98065 5.233 8.88224 4.86502 8.88224H2.55446V11.7319ZM11.0319 16.7253C10.5698 16.7253 10.1462 16.644 9.76114 16.4814C9.3846 16.3188 9.06369 16.0878 8.7984 15.7883C8.53312 15.4802 8.32773 15.1122 8.18225 14.6843C8.03677 14.2479 7.96403 13.7644 7.96403 13.2338C7.96403 12.7032 8.03677 12.224 8.18225 11.7961C8.32773 11.3597 8.53312 10.9917 8.7984 10.6922C9.06369 10.3841 9.3846 10.1488 9.76114 9.98618C10.1462 9.82358 10.5698 9.74228 11.0319 9.74228C11.4941 9.74228 11.9134 9.82358 12.2899 9.98618C12.675 10.1488 13.0002 10.3841 13.2655 10.6922C13.5308 10.9917 13.7362 11.3597 13.8816 11.7961C14.0271 12.224 14.0999 12.7032 14.0999 13.2338C14.0999 13.7644 14.0271 14.2479 13.8816 14.6843C13.7362 15.1122 13.5308 15.4802 13.2655 15.7883C13.0002 16.0878 12.675 16.3188 12.2899 16.4814C11.9134 16.644 11.4941 16.7253 11.0319 16.7253ZM11.0319 15.57C11.5112 15.57 11.8963 15.4246 12.1872 15.1336C12.4782 14.8341 12.6237 14.3891 12.6237 13.7986V12.669C12.6237 12.0785 12.4782 11.6378 12.1872 11.3468C11.8963 11.0473 11.5112 10.8976 11.0319 10.8976C10.5527 10.8976 10.1676 11.0473 9.87667 11.3468C9.58571 11.6378 9.44023 12.0785 9.44023 12.669V13.7986C9.44023 14.3891 9.58571 14.8341 9.87667 15.1336C10.1676 15.4246 10.5527 15.57 11.0319 15.57ZM14.5186 9.89632H15.8792L16.5596 12.6947L17.1629 15.2235H17.2014L17.8946 12.6947L18.7032 9.89632H19.9612L20.7828 12.6947L21.4888 15.2235H21.5273L22.1178 12.6947L22.8109 9.89632H24.1074L22.3103 16.5713H20.7314L19.8585 13.529L19.3194 11.6549H19.2937L18.7674 13.529L17.8817 16.5713H16.3413L14.5186 9.89632ZM27.586 16.7253C27.1068 16.7253 26.6789 16.644 26.3023 16.4814C25.9258 16.3188 25.6049 16.0878 25.3396 15.7883C25.0743 15.4802 24.8689 15.1122 24.7235 14.6843C24.5865 14.2479 24.5181 13.7644 24.5181 13.2338C24.5181 12.7032 24.5865 12.224 24.7235 11.7961C24.8689 11.3597 25.0743 10.9917 25.3396 10.6922C25.6049 10.3841 25.9258 10.1488 26.3023 9.98618C26.6789 9.82358 27.1068 9.74228 27.586 9.74228C28.0738 9.74228 28.5017 9.82786 28.8696 9.99901C29.2462 10.1702 29.5585 10.4098 29.8067 10.7179C30.0549 11.0174 30.2389 11.3682 30.3587 11.7704C30.487 12.1727 30.5512 12.6048 30.5512 13.0669V13.5932H25.9686V13.8114C25.9686 14.3249 26.1184 14.7485 26.4179 15.0823C26.7259 15.4074 27.1624 15.57 27.7272 15.57C28.138 15.57 28.4845 15.4802 28.7669 15.3005C29.0493 15.1208 29.289 14.8769 29.4858 14.5688L30.3073 15.3775C30.0592 15.7883 29.6997 16.1177 29.2291 16.3659C28.7584 16.6055 28.2107 16.7253 27.586 16.7253ZM27.586 10.8334C27.3464 10.8334 27.1239 10.8762 26.9185 10.9617C26.7217 11.0473 26.5505 11.1671 26.405 11.3212C26.2681 11.4752 26.1611 11.6592 26.0841 11.8731C26.0071 12.0871 25.9686 12.3224 25.9686 12.5791V12.669H29.075V12.5406C29.075 12.0272 28.9424 11.6164 28.6771 11.3083C28.4118 10.9917 28.0481 10.8334 27.586 10.8334ZM31.715 16.5713V9.89632H33.1142V11.18H33.1784C33.2725 10.8377 33.4693 10.5381 33.7689 10.2814C34.0684 10.0247 34.4834 9.89632 35.014 9.89632H35.3863V11.2442H34.8343C34.278 11.2442 33.8502 11.334 33.5506 11.5137C33.2597 11.6934 33.1142 11.9587 33.1142 12.3096V16.5713H31.715ZM38.7999 16.7253C38.3206 16.7253 37.8927 16.644 37.5162 16.4814C37.1397 16.3188 36.8188 16.0878 36.5535 15.7883C36.2882 15.4802 36.0828 15.1122 35.9373 14.6843C35.8004 14.2479 35.7319 13.7644 35.7319 13.2338C35.7319 12.7032 35.8004 12.224 35.9373 11.7961C36.0828 11.3597 36.2882 10.9917 36.5535 10.6922C36.8188 10.3841 37.1397 10.1488 37.5162 9.98618C37.8927 9.82358 38.3206 9.74228 38.7999 9.74228C39.2876 9.74228 39.7155 9.82786 40.0835 9.99901C40.46 10.1702 40.7724 10.4098 41.0206 10.7179C41.2687 11.0174 41.4527 11.3682 41.5725 11.7704C41.7009 12.1727 41.7651 12.6048 41.7651 13.0669V13.5932H37.1825V13.8114C37.1825 14.3249 37.3322 14.7485 37.6317 15.0823C37.9398 15.4074 38.3763 15.57 38.9411 15.57C39.3518 15.57 39.6984 15.4802 39.9808 15.3005C40.2632 15.1208 40.5028 14.8769 40.6997 14.5688L41.5212 15.3775C41.273 15.7883 40.9136 16.1177 40.4429 16.3659C39.9723 16.6055 39.4246 16.7253 38.7999 16.7253ZM38.7999 10.8334C38.5602 10.8334 38.3377 10.8762 38.1324 10.9617C37.9355 11.0473 37.7644 11.1671 37.6189 11.3212C37.482 11.4752 37.375 11.6592 37.298 11.8731C37.221 12.0871 37.1825 12.3224 37.1825 12.5791V12.669H40.2889V12.5406C40.2889 12.0272 40.1562 11.6164 39.891 11.3083C39.6257 10.9917 39.262 10.8334 38.7999 10.8334ZM47.1264 15.4674H47.0622C46.9168 15.861 46.6771 16.1691 46.3434 16.3916C46.0182 16.6141 45.6331 16.7253 45.1881 16.7253C44.3409 16.7253 43.6862 16.4215 43.2241 15.8139C42.762 15.1978 42.531 14.3377 42.531 13.2338C42.531 12.1299 42.762 11.2741 43.2241 10.6665C43.6862 10.0504 44.3409 9.74228 45.1881 9.74228C45.6331 9.74228 46.0182 9.85353 46.3434 10.076C46.6771 10.29 46.9168 10.598 47.0622 11.0003H47.1264V7.0723H48.5256V16.5713H47.1264V15.4674ZM45.6117 15.5187C46.0396 15.5187 46.399 15.416 46.69 15.2106C46.9809 14.9967 47.1264 14.7186 47.1264 14.3763V12.0914C47.1264 11.7491 46.9809 11.4752 46.69 11.2698C46.399 11.0559 46.0396 10.9489 45.6117 10.9489C45.1239 10.9489 44.7346 11.1072 44.4436 11.4239C44.1526 11.7319 44.0072 12.1427 44.0072 12.6562V13.8114C44.0072 14.3249 44.1526 14.74 44.4436 15.0566C44.7346 15.3647 45.1239 15.5187 45.6117 15.5187ZM52.7889 7.0723H54.1881V11.0003H54.2523C54.3978 10.598 54.6331 10.29 54.9583 10.076C55.292 9.85353 55.6814 9.74228 56.1264 9.74228C56.9736 9.74228 57.6283 10.0504 58.0904 10.6665C58.5525 11.2741 58.7835 12.1299 58.7835 13.2338C58.7835 14.3377 58.5525 15.1978 58.0904 15.8139C57.6283 16.4215 56.9736 16.7253 56.1264 16.7253C55.6814 16.7253 55.292 16.6141 54.9583 16.3916C54.6331 16.1691 54.3978 15.861 54.2523 15.4674H54.1881V16.5713H52.7889V7.0723ZM55.7028 15.5187C56.1906 15.5187 56.58 15.3647 56.8709 15.0566C57.1619 14.74 57.3074 14.3249 57.3074 13.8114V12.6562C57.3074 12.1427 57.1619 11.7319 56.8709 11.4239C56.58 11.1072 56.1906 10.9489 55.7028 10.9489C55.2749 10.9489 54.9155 11.0559 54.6245 11.2698C54.3336 11.4752 54.1881 11.7491 54.1881 12.0914V14.3763C54.1881 14.7186 54.3336 14.9967 54.6245 15.2106C54.9155 15.416 55.2749 15.5187 55.7028 15.5187ZM64.0075 9.89632H65.3553L62.5441 17.8934C62.4671 18.1159 62.3773 18.3042 62.2746 18.4583C62.1804 18.6208 62.0649 18.7492 61.928 18.8433C61.7996 18.946 61.6413 19.0188 61.453 19.0616C61.2648 19.1129 61.0423 19.1386 60.7855 19.1386H59.9768V17.9961H61.1064L61.4915 16.8665L59.0654 9.89632H60.4646L61.7996 13.8243L62.1847 15.2748H62.2489L62.6725 13.8243L64.0075 9.89632Z" fill="#A682F4"/>
<defs>
<linearGradient id="paint0_linear_30_1484" x1="68.9999" y1="11.24" x2="93.9999" y2="11.24" gradientUnits="userSpaceOnUse">
<stop offset="0.0444" stop-color="#079CEC"/>
<stop offset="0.3671" stop-color="#6B81F9"/>
<stop offset="1" stop-color="#A881F3"/>
</linearGradient>
</defs>
</svg>
