<svg xmlns="http://www.w3.org/2000/svg" xmlns:xlink="http://www.w3.org/1999/xlink" version="1.1" x="0px" y="0px" viewBox="0 0 55 37.5" enable-background="new 0 0 55 30" xml:space="preserve"><rect x="0.5" width="1" height="30"/><rect x="2.5" width="2" height="30"/><rect x="6.5" width="1" height="30"/><rect x="9.5" width="1" height="30"/><rect x="11.5" width="1" height="30"/><rect x="13.5" width="1" height="30"/><rect x="16.5" width="2" height="30"/><rect x="20.5" width="1" height="30"/><rect x="22.5" width="1" height="30"/><rect x="24.5" width="2" height="30"/><rect x="28.5" width="1" height="30"/><rect x="31.5" width="1" height="30"/><rect x="33.5" width="1" height="30"/><rect x="35.5" width="1" height="30"/><rect x="38.5" width="2" height="30"/><rect x="42.5" width="1" height="30"/><rect x="44.5" width="1" height="30"/><rect x="46.5" width="1" height="30"/><rect x="49.5" width="2" height="30"/><rect x="53.5" width="1" height="30"/><text x="0" y="45" fill="#000000" font-size="5px" font-weight="bold" font-family="'Helvetica Neue', Helvetica, Arial-Unicode, Arial, Sans-serif">Created by Mohamed Mb</text><text x="0" y="50" fill="#000000" font-size="5px" font-weight="bold" font-family="'Helvetica Neue', Helvetica, Arial-Unicode, Arial, Sans-serif">from the Noun Project</text></svg>